HIERARCHY
ROOT Hips
{
	OFFSET 0.00000 0.00000 0.00000
	CHANNELS 6 Xposition Yposition Zposition Zrotation Yrotation Xrotation 
	JOINT LHipJoint
	{
		OFFSET 0 0 0
		CHANNELS 3 Zrotation Yrotation Xrotation
		JOINT LeftHip
		{
			OFFSET 1.17584 -1.63585 1.00361
			CHANNELS 3 Zrotation Yrotation Xrotation
			JOINT LeftKnee
			{
				OFFSET 2.23889 -6.15131 0.00000
				CHANNELS 3 Zrotation Yrotation Xrotation
				JOINT LeftAnkle
				{
					OFFSET 2.65161 -7.28525 0.00000
					CHANNELS 3 Zrotation Yrotation Xrotation
					JOINT LeftToe
					{
						OFFSET 0.24898 -0.68407 1.57235
						CHANNELS 3 Zrotation Yrotation Xrotation
						End Site
						{
							OFFSET 0.00000 -0.00000 0.85838
						}
					}
				}
			}
		}
	}
	JOINT RHipJoint
	{
		OFFSET 0 0 0
		CHANNELS 3 Zrotation Yrotation Xrotation
		JOINT RightHip
		{
			OFFSET -1.15592 -1.63585 1.00361
			CHANNELS 3 Zrotation Yrotation Xrotation
			JOINT RightKnee
			{
				OFFSET -2.34071 -6.43104 0.00000
				CHANNELS 3 Zrotation Yrotation Xrotation
				JOINT RightAnkle
				{
					OFFSET -2.59113 -7.11908 0.00000
					CHANNELS 3 Zrotation Yrotation Xrotation
					JOINT RightToe
					{
						OFFSET -0.17867 -0.49089 1.70981
						CHANNELS 3 Zrotation Yrotation Xrotation
						End Site
						{
							OFFSET -0.00000 -0.00000 0.89861
						}
					}
				}
			}
		}
	}
	JOINT lowerback
	{
		OFFSET 0 0 0
		CHANNELS 3 Zrotation Yrotation Xrotation
		JOINT Chest
		{
			OFFSET -0.02255 1.90764 -0.16605
			CHANNELS 3 Zrotation Yrotation Xrotation
			JOINT Chest2
			{
				OFFSET -0.00365 1.92150 -0.04898
				CHANNELS 3 Zrotation Yrotation Xrotation
				JOINT lowerneck
				{
					OFFSET 0 0 0
					CHANNELS 3 Zrotation Yrotation Xrotation
					JOINT Neck
					{
						OFFSET 0.00372 1.59170 0.08694
						CHANNELS 3 Zrotation Yrotation Xrotation
						JOINT Head
						{
							OFFSET 0.12558 1.58643 -0.08078
							CHANNELS 3 Zrotation Yrotation Xrotation
							End Site
							{
								OFFSET 0.04211 1.60835 -0.03803
							}
						}
					}
				}
				JOINT LeftCollar
				{
					OFFSET 0 0 0
					CHANNELS 3 Zrotation Yrotation Xrotation
					JOINT LeftShoulder
					{
						OFFSET 3.69324 0.96316 0.19077
CHANNELS 3 Zrotation Xrotation Yrotation
						JOINT LeftElbow
						{
OFFSET 0 -4.877960 -0.000000
CHANNELS 3 Zrotation Xrotation Yrotation
							JOINT LeftWrist
							{
OFFSET 0 -3.231690 0.000000
CHANNELS 3 Zrotation Xrotation Yrotation
								JOINT lhand
								{
									OFFSET 0 0 0
CHANNELS 3 Zrotation Xrotation Yrotation
									JOINT LFingers
									{
OFFSET 0 -0.731320 0.000000
CHANNELS 3 Zrotation Xrotation Yrotation
										End Site
										{
OFFSET 0 -0.589610 0.000000
										}
									}
								}
								JOINT LThumb
								{
OFFSET 0 0.000000 0.000000
CHANNELS 3 Zrotation Xrotation Yrotation
									End Site
									{
OFFSET 0 -0.598610 0.598610
									}
								}
							}
						}
					}
				}
				JOINT RightCollar
				{
					OFFSET 0 0 0
					CHANNELS 3 Zrotation Yrotation Xrotation
					JOINT RightShoulder
					{
						OFFSET -3.66103 0.75145 0.08281
CHANNELS 3 Zrotation Xrotation Yrotation
						JOINT RightElbow
						{
OFFSET 0 -4.914300 0.000000
CHANNELS 3 Zrotation Xrotation Yrotation
							JOINT RightWrist
							{
OFFSET 0 -3.290930 0.000000
CHANNELS 3 Zrotation Xrotation Yrotation
								JOINT rhand
								{
									OFFSET 0 0 0
CHANNELS 3 Zrotation Xrotation Yrotation
									JOINT RFingers
									{
OFFSET 0 -0.545120 0.000000
CHANNELS 3 Zrotation Xrotation Yrotation
										End Site
										{
OFFSET 0 -0.439490 0.000000
										}
									}
								}
								JOINT RThumb
								{
OFFSET 0 0.000000 0.000000
CHANNELS 3 Zrotation Xrotation Yrotation
									End Site
									{
OFFSET 0 -0.446200 0.446200
									}
								}
							}
						}
					}
				}
			}
		}
	}
}
MOTION
Frames: 12
Frame Time: 0.008333333333333333
26.511454 15.511116 -10.480963 -171.055169 -72.646585 184.553175 0.000000 0.000000 0.000000 -27.607394 17.622606 -23.044519 9.497964 17.113259 57.790667 0.336303 -11.842269 -12.411237 0.728701 -5.443820 -15.181349 0.000000 0.000000 0.000000 -0.840292 21.943850 -49.949436 -8.347194 -16.368743 53.803801 -0.807641 2.446879 -16.328027 -0.018787 -0.313085 0.859731 10.157896 -3.769556 1.884715 0.212576 -4.888808 1.208122 -5.299914 -2.436998 -0.621331 3.960091 9.974065 -1.862787 -4.788962 12.624157 -14.254051 -2.522565 6.055176 -3.749854 0.000000 0.000000 0.000000 13.671086 -22.985711 -82.464859 48.618575 -52.411795 25.078204 27.543035 -8.595883 31.393129 0.000000 0.000000 0.000000 -7.125000 0.000000 0.000000 -2.271959 -4.533845 -2.445634 0.000000 0.000000 0.000000 -4.516146 2.392612 47.899532 -57.343338 -55.544706 -32.143615 -25.024450 -9.471183 10.082208 0.000000 0.000000 0.000000 7.125000 0.000000 0.000000 1.769146 41.075718 0.172149
26.308198 15.474231 -10.530410 -172.358341 -72.175654 186.122042 0.000000 0.000000 0.000000 -26.960962 18.593565 -25.318425 10.698508 17.777049 61.789256 0.350453 -10.571976 -12.042179 1.072270 -6.568481 -18.448055 0.000000 0.000000 0.000000 -1.879030 22.009296 -49.493104 -8.295486 -16.332345 53.620117 -0.834370 3.015360 -16.505913 -0.234290 2.831739 -7.829632 10.546472 -3.849918 2.083497 0.301564 -4.990322 1.505730 -5.414793 -2.470669 -0.460449 4.289589 10.220866 -1.711819 -5.354213 12.916040 -14.301465 -2.770944 6.207946 -3.718790 0.000000 0.000000 0.000000 14.389851 -22.881262 -81.688831 44.720160 -50.613594 22.027171 26.673960 -8.249540 30.594620 0.000000 0.000000 0.000000 -7.125000 0.000000 0.000000 -2.622345 -3.481597 -2.779011 0.000000 0.000000 0.000000 -4.627603 2.259337 45.885607 -52.102393 -53.782676 -27.868890 -25.491714 -7.949546 10.970964 0.000000 0.000000 0.000000 7.125000 0.000000 0.000000 1.446555 42.096388 0.104167
26.103566 15.421138 -10.580078 -173.507327 -71.679582 187.540743 0.000000 0.000000 0.000000 -26.171399 19.557432 -27.487406 11.931903 18.358703 65.769304 0.387443 -9.314827 -12.014624 1.413091 -7.514974 -21.252044 0.000000 0.000000 0.000000 -2.641100 21.687598 -49.153430 -8.277755 -16.319857 53.557223 -0.930889 4.161913 -17.311622 -0.968851 6.209711 -17.410781 10.924735 -3.931555 2.265882 0.368741 -5.096096 1.798765 -5.546900 -2.505641 -0.296888 4.506729 10.447491 -1.444108 -5.809362 13.199032 -14.379924 -2.976992 6.359228 -3.734265 0.000000 0.000000 0.000000 15.412214 -22.525214 -80.544690 41.346438 -48.841195 19.449008 26.244807 -8.442947 29.928823 0.000000 0.000000 0.000000 -7.125000 0.000000 0.000000 -2.754746 -2.681498 -2.883790 0.000000 0.000000 0.000000 -4.803789 2.022581 43.910964 -47.201185 -51.790794 -23.959615 -25.622320 -6.867623 11.540440 0.000000 0.000000 0.000000 7.125000 0.000000 0.000000 1.391942 42.735258 0.077769
25.896667 15.353195 -10.626643 -174.573917 -71.183288 188.869644 0.000000 0.000000 0.000000 -25.229362 20.480705 -29.509107 13.170025 18.838430 69.648762 0.410723 -8.415745 -12.021942 1.630120 -8.048634 -22.862150 0.000000 0.000000 0.000000 -3.092196 20.896005 -48.982484 -8.312460 -16.344291 53.680495 -1.103001 5.802982 -18.764577 -1.956957 8.753844 -25.043184 11.286979 -4.017248 2.465756 0.404312 -5.204778 2.083940 -5.700841 -2.542392 -0.153311 4.687749 10.650468 -1.140011 -6.239323 13.458518 -14.423067 -3.170899 6.502713 -3.747459 0.000000 0.000000 0.000000 16.684383 -21.809025 -78.909106 38.464082 -47.125324 17.307440 26.176345 -9.032029 29.339254 0.000000 0.000000 0.000000 -7.125000 0.000000 0.000000 -2.697696 -2.047837 -2.795597 0.000000 0.000000 0.000000 -5.085748 1.723801 41.951930 -42.737944 -49.593534 -20.506164 -25.550875 -6.101129 11.799213 0.000000 0.000000 0.000000 7.125000 0.000000 0.000000 1.486529 43.011436 0.072914
25.687694 15.274076 -10.667416 -175.589980 -70.580365 190.163326 0.000000 0.000000 0.000000 -24.193275 21.396088 -31.455409 14.385959 19.221633 73.375583 0.395146 -8.127555 -11.755172 1.690686 -8.189742 -23.291831 0.000000 0.000000 0.000000 -3.294376 19.755443 -49.071988 -8.411641 -16.413717 54.031960 -1.320293 7.586610 -20.535224 -2.726569 10.228045 -29.728313 11.609591 -4.062247 2.727832 0.405377 -5.250224 2.351219 -5.867092 -2.549928 -0.051693 4.857992 10.832543 -0.784404 -6.680265 13.691729 -14.502459 -3.374165 6.635062 -3.783326 0.000000 0.000000 0.000000 18.118310 -20.747199 -76.825797 35.932079 -45.456371 15.477352 26.362008 -9.914853 28.678210 0.000000 0.000000 0.000000 -7.125000 0.000000 0.000000 -2.483907 -1.396775 -2.546579 0.000000 0.000000 0.000000 -5.492760 1.453465 39.942906 -38.717519 -47.268876 -17.498069 -25.513925 -5.339678 11.900312 0.000000 0.000000 0.000000 7.125000 0.000000 0.000000 1.531998 43.118273 0.071163
25.477113 15.188323 -10.700642 -176.523760 -69.781705 191.421741 0.000000 0.000000 0.000000 -23.113395 22.325160 -33.432179 15.560521 19.519469 76.918718 0.331534 -8.480891 -11.064856 1.692857 -8.194644 -23.306924 0.000000 0.000000 0.000000 -3.357804 18.437985 -49.496014 -8.584578 -16.532694 54.641792 -1.547740 9.253505 -22.302660 -3.187748 10.992086 -32.254096 11.872428 -4.027023 3.082349 0.376302 -5.174879 2.592067 -6.032043 -2.501074 -0.004252 5.056680 10.988482 -0.384401 -7.168474 13.885487 -14.649777 -3.606957 6.748371 -3.847524 0.000000 0.000000 0.000000 19.643285 -19.413769 -74.387638 33.596216 -43.780682 13.833790 26.788949 -11.070417 27.873224 0.000000 0.000000 0.000000 -7.125000 0.000000 0.000000 -2.107033 -0.646885 -2.132328 0.000000 0.000000 0.000000 -6.038589 1.307650 37.843899 -35.148601 -44.912310 -14.920012 -25.651238 -4.367339 12.081834 0.000000 0.000000 0.000000 7.125000 0.000000 0.000000 1.428772 43.332801 0.058833
25.267170 15.099355 -10.724052 -177.205349 -68.699959 192.519207 0.000000 0.000000 0.000000 -21.963673 23.282983 -35.496003 16.667691 19.728579 80.213456 0.212865 -9.586877 -9.947436 1.733104 -8.286296 -23.587181 0.000000 0.000000 0.000000 -3.380302 17.156076 -50.373255 -8.852826 -16.711542 55.578876 -1.738358 10.787909 -23.731858 -3.400760 11.316952 -33.356646 12.070602 -3.887283 3.583061 0.336392 -4.940449 2.816909 -6.174084 -2.377956 -0.018665 5.260539 11.112998 0.023906 -7.967320 13.971278 -15.271063 -3.578204 6.847491 -3.612948 0.000000 0.000000 0.000000 21.201356 -17.878798 -71.559255 31.346554 -42.011861 12.304060 27.494714 -12.660616 26.848085 0.000000 0.000000 0.000000 -7.125000 0.000000 0.000000 -1.529775 0.278871 -1.524330 0.000000 0.000000 0.000000 -6.770432 1.331550 35.666712 -32.064700 -42.585803 -12.789229 -25.959174 -3.149527 12.410144 0.000000 0.000000 0.000000 7.125000 0.000000 0.000000 1.186897 43.729024 0.037536
25.059305 15.010235 -10.738976 -177.521232 -67.425565 193.336209 0.000000 0.000000 0.000000 -20.656375 24.232544 -37.613087 17.703275 19.869890 83.270128 0.046875 -11.269528 -8.599442 1.845048 -8.534636 -24.350613 0.000000 0.000000 0.000000 -3.404703 16.035673 -51.597707 -9.198739 -16.933164 56.773661 -1.860743 12.291137 -24.690051 -3.493158 11.453468 -33.825133 12.297220 -3.675099 4.168700 0.276938 -4.602427 3.089770 -6.359450 -2.200628 -0.009377 5.466342 11.221692 0.300661 -8.559607 14.067900 -15.571721 -3.809329 6.916670 -3.678421 0.000000 0.000000 0.000000 22.837427 -16.286327 -68.379915 29.146294 -40.140797 10.858447 28.424137 -14.639487 25.557752 0.000000 0.000000 0.000000 -7.125000 0.000000 0.000000 -0.774514 1.447334 -0.757188 0.000000 0.000000 0.000000 -7.624898 1.460188 33.463934 -29.354041 -40.320054 -10.994088 -26.234022 -1.957248 12.709306 0.000000 0.000000 0.000000 7.125000 0.000000 0.000000 0.970609 44.090914 0.022010
24.853449 14.920140 -10.747002 -177.437544 -66.122508 193.839529 0.000000 0.000000 0.000000 -19.090662 25.083054 -39.688221 18.668509 19.957168 86.104167 -0.157363 -13.321566 -7.228350 1.981899 -8.828245 -25.259502 0.000000 0.000000 0.000000 -3.405812 15.046658 -53.033460 -9.597448 -17.177134 58.134006 -1.915585 13.842695 -25.249990 -3.501698 11.466042 -33.868097 12.629447 -3.420778 4.745718 0.218625 -4.215538 3.439157 -6.613495 -1.990205 0.094763 5.623496 11.304968 0.488358 -9.134172 14.115775 -15.955800 -4.027325 6.959953 -3.761876 0.000000 0.000000 0.000000 24.544093 -14.695729 -64.910031 27.012130 -38.189979 9.506935 29.462750 -16.858598 24.074285 0.000000 0.000000 0.000000 -7.125000 0.000000 0.000000 0.081621 2.815457 0.077265 0.000000 0.000000 0.000000 -8.593747 1.690032 31.241837 -26.942470 -38.123358 -9.464001 -26.495021 -0.897704 13.027812 0.000000 0.000000 0.000000 7.125000 0.000000 0.000000 0.768467 44.473714 0.009976
24.647693 14.827361 -10.749366 -177.084751 -65.051690 194.194199 0.000000 0.000000 0.000000 -17.196728 25.590106 -41.669068 19.554891 19.993172 88.698338 -0.381355 -15.396211 -6.046935 2.105177 -9.081484 -26.050732 0.000000 0.000000 0.000000 -3.384226 14.034014 -54.550042 -10.016149 -17.418126 59.541196 -1.942918 15.291477 -25.675482 -3.487755 11.445683 -33.798042 13.073302 -3.158384 5.163569 0.192478 -3.847786 3.867793 -6.909930 -1.774392 0.373973 5.696111 11.333612 0.628723 -9.684697 14.075089 -16.427862 -4.228768 6.960845 -3.878286 0.000000 0.000000 0.000000 26.317722 -13.156400 -61.344308 24.992985 -36.188842 8.289039 30.470732 -19.450516 22.413535 0.000000 0.000000 0.000000 -7.125000 0.000000 0.000000 0.952877 4.411876 0.873433 0.000000 0.000000 0.000000 -9.728131 2.119106 29.026830 -24.821839 -36.012792 -8.188433 -26.840116 0.031543 13.673182 0.000000 0.000000 0.000000 7.125000 0.000000 0.000000 0.527296 45.230381 -0.002244
24.439624 14.732884 -10.748615 -176.817496 -64.330736 194.690105 0.000000 0.000000 0.000000 -15.114403 25.666015 -43.517027 20.369703 19.994960 91.081140 -0.582873 -17.107849 -5.145356 2.182777 -9.236741 -26.538760 0.000000 0.000000 0.000000 -3.414849 12.873876 -55.969900 -10.417512 -17.637367 60.874044 -2.005716 16.413116 -26.275921 -3.521219 11.494451 -33.966245 13.513964 -2.921208 5.404969 0.191980 -3.546473 4.334509 -7.183322 -1.580011 0.788245 5.709772 11.315134 0.791775 -10.213327 13.965265 -16.938783 -4.420127 6.931337 -4.021647 0.000000 0.000000 0.000000 28.178724 -11.639116 -58.054647 23.114259 -34.206351 7.205572 31.458141 -22.790035 20.651580 0.000000 0.000000 0.000000 -7.125000 0.000000 0.000000 1.831581 6.154131 1.622022 0.000000 0.000000 0.000000 -11.014499 2.826288 26.897346 -22.899482 -33.971333 -7.085264 -27.221938 0.905069 14.720550 0.000000 0.000000 0.000000 7.125000 0.000000 0.000000 0.304059 46.439751 -0.009984
24.227709 14.640405 -10.745564 -176.946718 -63.948499 195.562863 0.000000 0.000000 0.000000 -13.007876 25.314218 -45.211006 21.094459 19.971083 93.201356 -0.727176 -18.231982 -4.543439 2.239400 -9.347886 -26.889720 0.000000 0.000000 0.000000 -3.631321 11.556000 -57.182114 -10.782202 -17.826730 62.072040 -2.130163 17.095094 -27.138196 -3.617315 11.632985 -34.445629 13.813797 -2.717434 5.513941 0.172106 -3.319684 4.828186 -7.399444 -1.415041 1.299747 5.705292 11.275859 0.953177 -10.706646 13.829406 -17.429783 -4.598768 6.890477 -4.165639 0.000000 0.000000 0.000000 30.170926 -10.130995 -55.200319 21.354817 -32.239296 6.238585 32.270569 -26.919868 18.871045 0.000000 0.000000 0.000000 -7.125000 0.000000 0.000000 2.606404 7.987512 2.220892 0.000000 0.000000 0.000000 -12.388758 3.860083 24.936973 -21.129375 -31.978168 -6.118767 -27.501699 1.840366 16.062731 0.000000 0.000000 0.000000 7.125000 0.000000 0.000000 0.226518 47.963731 -0.016590
